<svg width="175" height="43" viewBox="0 0 175 43" fill="none" xmlns="http://www.w3.org/2000/svg">
<rect width="42.5807" height="42.5807" rx="5.52996" fill="white" fill-opacity="0.15"/>
<path d="M27.7795 17.4859L25.9801 19.2027C24.756 17.9113 23.3789 17.2656 21.8488 17.2656C20.5574 17.2656 19.468 17.7062 18.5805 18.5876C17.6992 19.4689 17.2585 20.5553 17.2585 21.8467C17.2585 22.7464 17.4543 23.5451 17.8461 24.2428C18.2378 24.9406 18.7917 25.4883 19.5077 25.8862C20.2238 26.284 21.0195 26.4829 21.8947 26.4829C22.6414 26.4829 23.3238 26.3452 23.942 26.0698C24.5601 25.7882 25.2395 25.2802 25.9801 24.5458L27.7244 26.3635C26.7268 27.3367 25.7842 28.013 24.8968 28.3925C24.0093 28.7658 22.9964 28.9525 21.858 28.9525C19.7587 28.9525 18.0388 28.2884 16.6985 26.9603C15.3642 25.626 14.6971 23.9184 14.6971 21.8375C14.6971 20.491 15.0001 19.2945 15.606 18.2479C16.218 17.2013 17.0902 16.3597 18.2225 15.7232C19.3609 15.0867 20.5849 14.7684 21.8947 14.7684C23.0086 14.7684 24.0797 15.0041 25.1079 15.4753C26.1423 15.9466 27.0328 16.6168 27.7795 17.4859Z" fill="white"/>
<path d="M70.3206 19.0715H67.4929C67.4123 18.6078 67.2636 18.197 67.0469 17.8391C66.8301 17.4762 66.5605 17.1687 66.2379 16.9167C65.9153 16.6647 65.5474 16.4757 65.1341 16.3497C64.7258 16.2186 64.2848 16.1531 63.811 16.1531C62.9692 16.1531 62.2233 16.3648 61.5731 16.7882C60.9229 17.2065 60.4138 17.8215 60.0459 18.633C59.6779 19.4394 59.4939 20.4248 59.4939 21.5891C59.4939 22.7736 59.6779 23.7716 60.0459 24.5831C60.4188 25.3895 60.9279 25.9994 61.5731 26.4127C62.2233 26.821 62.9667 27.0251 63.8034 27.0251C64.2671 27.0251 64.7006 26.9646 65.1038 26.8437C65.5121 26.7176 65.8775 26.5337 66.2001 26.2917C66.5277 26.0498 66.8024 25.7524 67.0242 25.3996C67.251 25.0468 67.4073 24.6435 67.4929 24.1899L70.3206 24.205C70.2147 24.9409 69.9854 25.6315 69.6326 26.2766C69.2848 26.9218 68.8286 27.4913 68.2641 27.9853C67.6996 28.4742 67.0393 28.8573 66.2833 29.1345C65.5272 29.4067 64.688 29.5427 63.7656 29.5427C62.4047 29.5427 61.19 29.2277 60.1215 28.5977C59.0529 27.9676 58.2112 27.0579 57.5963 25.8683C56.9813 24.6788 56.6739 23.2524 56.6739 21.5891C56.6739 19.9208 56.9838 18.4943 57.6038 17.3099C58.2238 16.1203 59.068 15.2106 60.1366 14.5805C61.2051 13.9505 62.4148 13.6355 63.7656 13.6355C64.6275 13.6355 65.4289 13.7564 66.1699 13.9984C66.9108 14.2403 67.5711 14.5956 68.1507 15.0644C68.7303 15.5281 69.2067 16.0977 69.5796 16.7731C69.9577 17.4434 70.2046 18.2096 70.3206 19.0715ZM77.8338 29.5579C76.6997 29.5579 75.7169 29.3084 74.8852 28.8094C74.0536 28.3104 73.4084 27.6123 72.9497 26.7151C72.4961 25.8179 72.2693 24.7696 72.2693 23.57C72.2693 22.3704 72.4961 21.3194 72.9497 20.4172C73.4084 19.515 74.0536 18.8144 74.8852 18.3154C75.7169 17.8164 76.6997 17.5669 77.8338 17.5669C78.9679 17.5669 79.9507 17.8164 80.7824 18.3154C81.6141 18.8144 82.2567 19.515 82.7103 20.4172C83.169 21.3194 83.3983 22.3704 83.3983 23.57C83.3983 24.7696 83.169 25.8179 82.7103 26.7151C82.2567 27.6123 81.6141 28.3104 80.7824 28.8094C79.9507 29.3084 78.9679 29.5579 77.8338 29.5579ZM77.8489 27.3653C78.4638 27.3653 78.978 27.1965 79.3913 26.8588C79.8046 26.516 80.112 26.0574 80.3137 25.4828C80.5203 24.9082 80.6236 24.268 80.6236 23.5624C80.6236 22.8517 80.5203 22.2091 80.3137 21.6345C80.112 21.0548 79.8046 20.5936 79.3913 20.2509C78.978 19.9082 78.4638 19.7368 77.8489 19.7368C77.2189 19.7368 76.6947 19.9082 76.2763 20.2509C75.863 20.5936 75.5531 21.0548 75.3464 21.6345C75.1448 22.2091 75.044 22.8517 75.044 23.5624C75.044 24.268 75.1448 24.9082 75.3464 25.4828C75.5531 26.0574 75.863 26.516 76.2763 26.8588C76.6947 27.1965 77.2189 27.3653 77.8489 27.3653ZM85.7213 29.3311V17.7181H88.3372V19.6914H88.4733C88.7153 19.0261 89.116 18.5069 89.6754 18.134C90.2349 17.7559 90.9028 17.5669 91.679 17.5669C92.4653 17.5669 93.1281 17.7585 93.6674 18.1415C94.2117 18.5195 94.5948 19.0362 94.8166 19.6914H94.9375C95.1946 19.0463 95.6281 18.5321 96.2379 18.1491C96.8529 17.761 97.5812 17.5669 98.4229 17.5669C99.4915 17.5669 100.363 17.9046 101.039 18.58C101.714 19.2554 102.052 20.2408 102.052 21.5362V29.3311H99.3075V21.9596C99.3075 21.2388 99.116 20.7121 98.7329 20.3794C98.3498 20.0417 97.8811 19.8729 97.3267 19.8729C96.6664 19.8729 96.1497 20.0795 95.7768 20.4928C95.4088 20.9011 95.2248 21.4329 95.2248 22.0881V29.3311H92.5409V21.8462C92.5409 21.2464 92.3594 20.7675 91.9965 20.4097C91.6386 20.0518 91.1699 19.8729 90.5903 19.8729C90.1971 19.8729 89.8392 19.9737 89.5167 20.1753C89.1941 20.3719 88.937 20.6516 88.7455 21.0145C88.554 21.3724 88.4582 21.7907 88.4582 22.2696V29.3311H85.7213ZM104.829 29.3311V17.7181H107.444V19.6914H107.581C107.823 19.0261 108.223 18.5069 108.783 18.134C109.342 17.7559 110.01 17.5669 110.786 17.5669C111.573 17.5669 112.235 17.7585 112.775 18.1415C113.319 18.5195 113.702 19.0362 113.924 19.6914H114.045C114.302 19.0463 114.735 18.5321 115.345 18.1491C115.96 17.761 116.688 17.5669 117.53 17.5669C118.599 17.5669 119.471 17.9046 120.146 18.58C120.822 19.2554 121.159 20.2408 121.159 21.5362V29.3311H118.415V21.9596C118.415 21.2388 118.223 20.7121 117.84 20.3794C117.457 20.0417 116.988 19.8729 116.434 19.8729C115.774 19.8729 115.257 20.0795 114.884 20.4928C114.516 20.9011 114.332 21.4329 114.332 22.0881V29.3311H111.648V21.8462C111.648 21.2464 111.467 20.7675 111.104 20.4097C110.746 20.0518 110.277 19.8729 109.698 19.8729C109.304 19.8729 108.947 19.9737 108.624 20.1753C108.301 20.3719 108.044 20.6516 107.853 21.0145C107.661 21.3724 107.565 21.7907 107.565 22.2696V29.3311H104.829ZM131.338 24.447V17.7181H134.074V29.3311H131.421V27.267H131.3C131.038 27.9172 130.607 28.449 130.007 28.8623C129.412 29.2756 128.679 29.4823 127.807 29.4823C127.046 29.4823 126.373 29.3134 125.788 28.9757C125.209 28.633 124.755 28.1365 124.427 27.4863C124.1 26.8311 123.936 26.0397 123.936 25.1123V17.7181H126.673V24.6889C126.673 25.4248 126.874 26.0095 127.278 26.4429C127.681 26.8764 128.21 27.0931 128.865 27.0931C129.268 27.0931 129.659 26.9949 130.037 26.7983C130.415 26.6017 130.725 26.3094 130.967 25.9213C131.214 25.5281 131.338 25.0367 131.338 24.447ZM139.626 22.5266V29.3311H136.889V17.7181H139.505V19.6914H139.641C139.908 19.0412 140.334 18.5246 140.919 18.1415C141.508 17.7585 142.237 17.5669 143.104 17.5669C143.905 17.5669 144.603 17.7383 145.198 18.081C145.798 18.4238 146.261 18.9203 146.589 19.5705C146.922 20.2207 147.085 21.0095 147.08 21.9369V29.3311H144.343V22.3603C144.343 21.5841 144.142 20.9767 143.739 20.5382C143.34 20.0997 142.789 19.8804 142.083 19.8804C141.604 19.8804 141.178 19.9863 140.805 20.198C140.437 20.4046 140.147 20.7045 139.936 21.0977C139.729 21.4908 139.626 21.9671 139.626 22.5266ZM149.863 29.3311V17.7181H152.6V29.3311H149.863ZM151.239 16.0699C150.805 16.0699 150.432 15.9263 150.12 15.639C149.807 15.3467 149.651 14.9964 149.651 14.5881C149.651 14.1748 149.807 13.8245 150.12 13.5372C150.432 13.2448 150.805 13.0987 151.239 13.0987C151.677 13.0987 152.05 13.2448 152.358 13.5372C152.67 13.8245 152.826 14.1748 152.826 14.5881C152.826 14.9964 152.67 15.3467 152.358 15.639C152.05 15.9263 151.677 16.0699 151.239 16.0699ZM161.213 17.7181V19.8351H154.537V17.7181H161.213ZM156.185 14.9359H158.922V25.8381C158.922 26.206 158.977 26.4883 159.088 26.6849C159.204 26.8764 159.355 27.0075 159.542 27.078C159.728 27.1486 159.935 27.1839 160.162 27.1839C160.333 27.1839 160.49 27.1713 160.631 27.1461C160.777 27.1209 160.888 27.0982 160.963 27.078L161.425 29.2176C161.278 29.2681 161.069 29.3235 160.797 29.384C160.53 29.4445 160.202 29.4797 159.814 29.4898C159.129 29.51 158.511 29.4067 157.962 29.1798C157.412 28.948 156.976 28.5901 156.654 28.1063C156.336 27.6224 156.18 27.0175 156.185 26.2917V14.9359ZM165.203 33.6859C164.83 33.6859 164.485 33.6557 164.167 33.5952C163.855 33.5397 163.605 33.4742 163.419 33.3986L164.054 31.2665C164.452 31.3825 164.807 31.4379 165.12 31.4329C165.432 31.4278 165.707 31.3295 165.944 31.138C166.186 30.9515 166.39 30.639 166.556 30.2005L166.791 29.573L162.579 17.7181H165.483L168.159 26.4883H168.28L170.964 17.7181H173.875L169.225 30.7373C169.008 31.3522 168.721 31.8789 168.363 32.3175C168.005 32.761 167.567 33.0987 167.048 33.3306C166.534 33.5675 165.919 33.6859 165.203 33.6859Z" fill="white"/>
</svg>
